<svg width="22" height="22" viewBox="0 0 22 22" fill="none" xmlns="http://www.w3.org/2000/svg">
<path d="M12.4 1.00015H5C4.46957 1.00015 3.96086 1.21086 3.58579 1.58594C3.21071 1.96101 3 2.46972 3 3.00015V19.0001C3 19.5306 3.21071 20.0393 3.58579 20.4144C3.96086 20.7894 4.46957 21.0001 5 21.0001H17C17.5304 21.0001 18.0391 20.7894 18.4142 20.4144C18.7893 20.0393 19 19.5306 19 19.0001V11.6001M1 5.00015H5M1 9.00015H5M1 13.0001H5M1 17.0001H5M20.378 4.62615C20.7764 4.22779 21.0001 3.68751 21.0001 3.12415C21.0001 2.56079 20.7764 2.0205 20.378 1.62215C19.9796 1.22379 19.4394 1 18.876 1C18.3126 1 17.7724 1.22379 17.374 1.62215L12.364 6.63415C12.1262 6.87177 11.9522 7.16548 11.858 7.48815L11.021 10.3581C10.9959 10.4442 10.9944 10.5354 11.0166 10.6222C11.0389 10.7091 11.0841 10.7883 11.1474 10.8517C11.2108 10.9151 11.2901 10.9603 11.3769 10.9825C11.4637 11.0048 11.555 11.0032 11.641 10.9781L14.511 10.1411C14.8337 10.0469 15.1274 9.8729 15.365 9.63515L20.378 4.62615Z" stroke="black" stroke-width="2" stroke-linecap="round" stroke-linejoin="round"/>
</svg>
