<svg width="22" height="22" viewBox="0 0 22 22" fill="none" xmlns="http://www.w3.org/2000/svg">
<path d="M12.832 15.568C13.0385 15.6628 13.2712 15.6845 13.4917 15.6294C13.7122 15.5744 13.9073 15.4458 14.045 15.265L14.4 14.8C14.5863 14.5516 14.8279 14.35 15.1056 14.2111C15.3833 14.0723 15.6895 14 16 14H19C19.5304 14 20.0391 14.2107 20.4142 14.5858C20.7893 14.9609 21 15.4696 21 16V19C21 19.5304 20.7893 20.0391 20.4142 20.4142C20.0391 20.7893 19.5304 21 19 21C14.2261 21 9.64773 19.1036 6.27208 15.7279C2.89642 12.3523 1 7.7739 1 3C1 2.46957 1.21071 1.96086 1.58579 1.58579C1.96086 1.21071 2.46957 1 3 1H6C6.53043 1 7.03914 1.21071 7.41421 1.58579C7.78929 1.96086 8 2.46957 8 3V6C8 6.31049 7.92771 6.61672 7.78885 6.89443C7.65 7.17214 7.44839 7.41371 7.2 7.6L6.732 7.951C6.54842 8.09118 6.41902 8.29059 6.36579 8.51535C6.31256 8.74012 6.33878 8.97638 6.44 9.184C7.80668 11.9599 10.0544 14.2048 12.832 15.568Z" stroke="black" stroke-width="2" stroke-linecap="round" stroke-linejoin="round"/>
</svg>
